<svg xmlns="http://www.w3.org/2000/svg" xmlns:xlink="http://www.w3.org/1999/xlink" width="90" height="68" version="1.1" style=""><rect id="backgroundrect" width="100%" height="100%" x="0" y="0" fill="none" stroke="none"/>
    <!-- Generator: Sketch 55 (78076) - https://sketchapp.com -->
    <title>logo</title>
    <desc>Created with Sketch.</desc>
    
<g class="currentLayer" style=""><title>Layer 1</title><g id="Web" stroke="none" stroke-width="1" fill="#990098" fill-rule="evenodd" class="selected" fill-opacity="1">
        <g id="Sign-In" fill="#990098" fill-rule="nonzero" fill-opacity="1">
            <g id="Group-6" fill="#990098" fill-opacity="1">
                <g id="Group-5" fill="#990098" fill-opacity="1">
                    <g id="logo" fill="#990098" fill-opacity="1">
                        <path d="M41.75,10.475000000000023 C41.75,5.975000000000023 39.75,0.4750000000000228 30.5,0.4750000000000228 C26,0.4750000000000228 24.25,1.7250000000000227 22,3.2250000000000227 C19.5,4.975000000000023 16.25,7.225000000000023 9.75,7.225000000000023 C5.5,7.225000000000023 2.5,6.475000000000023 0,5.475000000000023 C2.75,12.225000000000023 9.5,20.725000000000023 26.75,20.725000000000023 C35.75,20.475000000000023 41.75,15.225000000000023 41.75,10.475000000000023 z" id="Path" fill="#990098" fill-opacity="1"/>
                        <path d="M61.75,47.22500000000002 C53,47.22500000000002 47.75,44.47500000000002 45,42.22500000000002 C42.25,44.47500000000002 37,47.22500000000002 28.25,47.22500000000002 C14.5,47.22500000000002 9.75,28.975000000000023 8.5,23.475000000000023 C7.5,22.975000000000023 6.75,22.725000000000023 5.75,22.225000000000023 L7,33.72500000000002 C9.25,53.22500000000002 33.25,66.22500000000002 45,67.22500000000002 C56,65.97500000000002 80,53.22500000000002 82.5,33.72500000000002 L83.75,21.975000000000023 C83,22.475000000000023 82,22.975000000000023 81,23.475000000000023 C80.25,29.225000000000023 75.5,47.22500000000002 61.75,47.22500000000002 z" id="Path" fill="#990098" fill-opacity="1"/>
                        <path d="M68.25,3.2250000000000227 C66,1.7250000000000227 64,0.4750000000000228 59.75,0.4750000000000228 C50.5,0.4750000000000228 48.5,5.975000000000023 48.5,10.475000000000023 C48.5,15.225000000000023 54.5,20.475000000000023 63.25,20.475000000000023 C80.5,20.475000000000023 87.25,11.975000000000023 90,5.225000000000023 C87.5,6.225000000000023 84.5,6.975000000000023 80.5,6.975000000000023 C74,7.225000000000023 70.75,4.975000000000023 68.25,3.2250000000000227 z" id="Path" fill="#990098" fill-opacity="1"/>
                    </g>
                </g>
            </g>
        </g>
    </g></g></svg>